<svg width="16" height="12" viewBox="0 0 16 12" fill="none" xmlns="http://www.w3.org/2000/svg">
<path d="M13.8832 10.0475C13.7483 10.5735 13.2309 11 12.7276 11C12.2243 11 11.9256 10.5735 12.0605 10.0475C12.1953 9.52144 12.7127 9.09498 13.216 9.09498C13.7193 9.09498 14.018 9.52144 13.8832 10.0475Z" stroke="#DC41FF" stroke-width="0.5" stroke-miterlimit="10" stroke-linecap="round" stroke-linejoin="round"/>
<path d="M12.9748 10.0454H12.9716" stroke="#DC41FF" stroke-width="0.5" stroke-miterlimit="10" stroke-linecap="round" stroke-linejoin="round"/>
<path d="M6.82395 10.0475C6.68908 10.5735 6.17174 11 5.66841 11C5.16508 11 4.86639 10.5735 5.00125 10.0475C5.13612 9.52144 5.65346 9.09498 6.15679 9.09498C6.66012 9.09498 6.95881 9.52144 6.82395 10.0475Z" stroke="#DC41FF" stroke-width="0.5" stroke-miterlimit="10" stroke-linecap="round" stroke-linejoin="round"/>
<path d="M5.91238 10.0454H5.90918" stroke="#DC41FF" stroke-width="0.5" stroke-miterlimit="10" stroke-linecap="round" stroke-linejoin="round"/>
<path d="M6.82227 10.0454H12.0625" stroke="#DC41FF" stroke-width="0.5" stroke-miterlimit="10" stroke-linecap="round" stroke-linejoin="round"/>
<path d="M10.3419 3.85411H11.8274C11.9532 3.85411 12.0279 3.96073 11.9942 4.09224L10.468 10.0454" stroke="#DC41FF" stroke-width="0.5" stroke-miterlimit="10" stroke-linecap="round" stroke-linejoin="round"/>
<path d="M4.99791 10.0454H3.85871C3.73289 10.0454 3.65822 9.9388 3.69193 9.80729L4.11929 8.14033" stroke="#DC41FF" stroke-width="0.5" stroke-miterlimit="10" stroke-linecap="round" stroke-linejoin="round"/>
<path d="M11.9329 4.33036H13.8632C14.0687 4.33036 14.2119 4.47411 14.2128 4.68131L14.2232 6.94975L14.9936 7.52542C15.1088 7.61148 15.153 7.76648 15.1101 7.93379L14.6908 9.56913C14.6234 9.83218 14.3648 10.0454 14.1131 10.0454H13.8852" stroke="#DC41FF" stroke-width="0.5" stroke-miterlimit="10" stroke-linecap="round" stroke-linejoin="round"/>
<path d="M15.0577 8.14111H14.6021" stroke="#DC41FF" stroke-width="0.5" stroke-miterlimit="10" stroke-linecap="round" stroke-linejoin="round"/>
<path d="M13.6882 8.14111H10.9542" stroke="#DC41FF" stroke-width="0.5" stroke-miterlimit="10" stroke-linecap="round" stroke-linejoin="round"/>
<path d="M14.2229 6.95361H12.6281C12.3764 6.95361 12.2271 6.74038 12.2945 6.47737L12.4776 5.76297C12.5451 5.49995 12.8038 5.28672 13.0554 5.28672H14.1946" stroke="#DC41FF" stroke-width="0.5" stroke-miterlimit="10" stroke-linecap="round" stroke-linejoin="round"/>
<path d="M9.42814 4.33369C9.42814 6.17487 8.00007 7.66748 6.23842 7.66748C4.47678 7.66748 3.04871 6.17487 3.04871 4.33369C3.04871 2.49251 4.47678 0.999905 6.23842 0.999905C8.00007 0.999905 9.42814 2.49251 9.42814 4.33369Z" stroke="#DC41FF" stroke-width="0.5" stroke-miterlimit="10" stroke-linecap="round" stroke-linejoin="round"/>
<path d="M6.69637 4.33284C6.69637 4.59585 6.49235 4.80908 6.2407 4.80908C5.98902 4.80908 5.78503 4.59585 5.78503 4.33284C5.78503 4.06982 5.98902 3.85659 6.2407 3.85659C6.49235 3.85659 6.69637 4.06982 6.69637 4.33284Z" stroke="#DC41FF" stroke-width="0.5" stroke-miterlimit="10" stroke-linecap="round" stroke-linejoin="round"/>
<path d="M6.59595 3.96094L7.83482 2.66614" stroke="#DC41FF" stroke-width="0.5" stroke-miterlimit="10" stroke-linecap="round" stroke-linejoin="round"/>
<path d="M5.32849 5.28467L5.89807 4.68933" stroke="#DC41FF" stroke-width="0.5" stroke-miterlimit="10" stroke-linecap="round" stroke-linejoin="round"/>
<path d="M6.2395 1.95109V2.18921" stroke="#DC41FF" stroke-width="0.5" stroke-miterlimit="10" stroke-linecap="round" stroke-linejoin="round"/>
<path d="M6.2395 6.47599V6.71411" stroke="#DC41FF" stroke-width="0.5" stroke-miterlimit="10" stroke-linecap="round" stroke-linejoin="round"/>
<path d="M8.51812 4.33228H8.29028" stroke="#DC41FF" stroke-width="0.5" stroke-miterlimit="10" stroke-linecap="round" stroke-linejoin="round"/>
<path d="M4.18963 4.33228H3.96179" stroke="#DC41FF" stroke-width="0.5" stroke-miterlimit="10" stroke-linecap="round" stroke-linejoin="round"/>
<path d="M3.27836 7.42798H1" stroke="#DC41FF" stroke-width="0.5" stroke-miterlimit="10" stroke-linecap="round" stroke-linejoin="round"/>
<path d="M3.05099 8.38037H1.68396" stroke="#DC41FF" stroke-width="0.5" stroke-miterlimit="10" stroke-linecap="round" stroke-linejoin="round"/>
<path d="M2.822 9.33252H2.36633" stroke="#DC41FF" stroke-width="0.5" stroke-miterlimit="10" stroke-linecap="round" stroke-linejoin="round"/>
</svg>
