<svg width="21" height="17" viewBox="0 0 21 17" fill="none" xmlns="http://www.w3.org/2000/svg">
<path d="M6.47839 3.8606C6.41041 3.8606 6.34227 3.84503 6.27947 3.81365L5.47156 3.40971L4.66366 3.81365C4.37833 3.96448 4.01253 3.73839 4.01988 3.41578V0.446508C4.04176 -0.143036 4.88784 -0.142591 4.90952 0.446508V2.69611L5.27261 2.51454C5.39785 2.45194 5.54524 2.45194 5.67048 2.51454L6.03357 2.69611V0.446508C6.05545 -0.143036 6.90153 -0.142591 6.9232 0.446508V3.41582C6.9232 3.56997 6.84338 3.71316 6.71224 3.7942C6.64082 3.83831 6.55971 3.8606 6.47839 3.8606Z" fill="#DC41FF"/>
<path d="M8.88727 7.17669C8.64161 7.17669 8.44245 6.97753 8.44245 6.73187V0.888962H2.50023V6.69713C2.47835 7.28668 1.63227 7.28623 1.6106 6.69713V0.444145C1.6106 0.198485 1.80975 -0.000671387 2.05541 -0.000671387H8.88723C9.13289 -0.000671387 9.33204 0.198485 9.33204 0.444145V6.73191C9.33208 6.97753 9.13293 7.17669 8.88727 7.17669Z" fill="#875D9A"/>
<path d="M4.73776 17.0007C3.17189 17.0007 1.92409 15.7869 1.89704 14.2373C1.89276 13.9917 2.08839 13.7891 2.33405 13.7848C2.57769 13.781 2.78227 13.9762 2.78659 14.2219C2.89104 16.7176 6.57526 16.7262 6.69135 14.2452C6.69564 13.9996 6.89815 13.8035 7.14385 13.8082C7.38947 13.8125 7.58515 14.0151 7.58087 14.2607C7.55401 15.7972 6.30517 17.0007 4.73776 17.0007Z" fill="#875D9A"/>
<path d="M18.0122 16.9975C16.5043 17.0245 15.1753 15.8387 15.1739 14.3178C15.1696 14.0721 15.3652 13.8696 15.6109 13.8653C15.8557 13.8607 16.0594 14.0565 16.0634 14.3023C16.0814 15.3316 16.9192 16.1079 18.0122 16.1079C19.6696 16.134 20.6067 14.0516 19.4798 12.8639C19.3092 12.6872 19.3141 12.4056 19.4908 12.2349C19.6676 12.0643 19.9491 12.0692 20.1199 12.2459C21.7947 13.9788 20.4389 17.0362 18.0122 16.9975Z" fill="#875D9A"/>
<path d="M20.8698 11.2956C19.9759 10.3942 18.6779 9.96106 17.4234 10.1582C17.5409 9.60096 17.4475 9.00248 17.248 8.25794C17.0083 7.36297 16.6668 6.22452 16.3765 5.2357L17.2826 5.2934C17.4054 5.30141 17.5256 5.25794 17.6153 5.17387C17.7049 5.0898 17.7557 4.97237 17.7557 4.84952V2.45082C17.7557 2.32773 17.7047 2.2101 17.6148 2.12598C17.5249 2.04183 17.4038 1.99905 17.2813 2.00698L14.283 2.20686C14.0662 2.2213 13.8916 2.39025 13.87 2.60643L13.7419 3.88645L13.1458 4.09288C12.9137 4.17327 12.7906 4.42662 12.871 4.65877C12.951 4.89315 13.211 5.01361 13.4369 4.93355L13.7036 4.84123C13.7543 5.02979 13.8042 5.21216 13.8524 5.38855C14.6023 8.12911 14.9207 9.29372 12.6525 12.1104H10.284C9.81093 11.2673 9.40404 10.3686 9.33958 9.06346C10.7378 8.53923 10.3974 6.48171 8.88587 6.4536H2.05406C0.272687 6.52142 0.273981 9.07511 2.05406 9.14224H2.11766L1.66767 9.98472C1.63322 10.0492 1.61522 10.1212 1.61522 10.1943V10.9982C0.801089 11.8039 0.295898 12.9212 0.295898 14.1543C0.295898 14.4 0.495055 14.5992 0.740715 14.5992H14.7723C14.8042 14.6027 14.8377 14.6026 14.8696 14.5992H18.0111C18.1291 14.5992 18.2422 14.5523 18.3256 14.4689L20.8698 11.9247C21.0435 11.751 21.0435 11.4694 20.8698 11.2956ZM16.866 2.92625V4.37542L15.8614 4.31145C15.8203 4.3028 15.7776 4.2998 15.7344 4.30336L15.1475 4.266C15.2376 4.15099 15.2696 3.99421 15.2183 3.84585C15.1397 3.61895 14.8959 3.49671 14.668 3.56654L14.7177 3.06944L16.866 2.92625ZM2.05406 8.2526C1.45153 8.22968 1.45202 7.36596 2.05406 7.34324H8.88587C9.48835 7.36617 9.48795 8.22992 8.88587 8.2526H2.05406ZM1.21323 13.7095C1.32241 12.8394 1.7477 12.0663 2.36984 11.5087C2.37157 11.507 2.37343 11.5055 2.37513 11.5038C4.45311 9.60614 8.00881 10.8744 8.26377 13.7095H1.21323ZM14.3951 13.7095H9.15858C9.06101 12.6249 8.60487 11.6497 7.84969 10.9281C6.50833 9.5928 4.12472 9.32101 2.50486 10.3154V10.3057L3.12631 9.14224H8.4529C8.53912 10.7399 9.08369 11.8134 9.6404 12.7776C9.71986 12.9152 9.86673 13 10.0256 13H12.8641C12.9971 13 13.1232 12.9404 13.2077 12.8376C14.5003 11.2647 15.1148 10.0732 15.2624 8.85375C15.4036 7.68684 15.0977 6.56897 14.7105 5.15373C14.7083 5.14556 14.7061 5.13739 14.7038 5.12922L15.4318 5.17557C15.5173 5.46821 15.6066 5.77101 15.6937 6.06645C15.9411 6.90538 16.197 7.77289 16.3887 8.48815C16.6714 9.54346 16.6542 10.0322 16.2923 10.546C15.2318 11.1347 14.5183 12.2787 14.3951 13.7095ZM17.8268 13.7095H15.2884C15.4001 12.6268 15.9192 11.7795 16.6956 11.338C16.7553 11.3214 16.8118 11.2925 16.861 11.2514C17.8129 10.7934 19.0737 10.9899 19.9044 11.632L17.8268 13.7095Z" fill="#DC41FF"/>
<path d="M5.66819 12.9997H3.80918C3.21963 12.9779 3.22008 12.1318 3.80918 12.1101H5.66815C6.25773 12.132 6.25729 12.9781 5.66819 12.9997Z" fill="#DC41FF"/>
</svg>
