<svg width="11" height="10" viewBox="0 0 11 10" fill="none" xmlns="http://www.w3.org/2000/svg">
<path d="M5.50042 8.35736L3.25251 9.71152C3.1532 9.77472 3.04938 9.8018 2.94105 9.79277C2.83271 9.78375 2.73792 9.74764 2.65667 9.68444C2.57542 9.62125 2.51223 9.54234 2.46709 9.44773C2.42195 9.35312 2.41292 9.24696 2.44001 9.12923L3.03584 6.56986L1.04521 4.85007C0.954936 4.76882 0.898603 4.67619 0.876214 4.57219C0.853825 4.46819 0.860506 4.36672 0.896256 4.26777C0.932006 4.16883 0.986172 4.08758 1.05876 4.02402C1.13134 3.96047 1.23064 3.91984 1.35667 3.90215L3.98376 3.67194L4.99938 1.26152C5.04452 1.15319 5.11458 1.07194 5.20955 1.01777C5.30452 0.963607 5.40148 0.936523 5.50042 0.936523C5.59937 0.936523 5.69633 0.963607 5.7913 1.01777C5.88627 1.07194 5.95633 1.15319 6.00146 1.26152L7.01709 3.67194L9.64417 3.90215C9.77056 3.9202 9.86987 3.96083 9.94209 4.02402C10.0143 4.08722 10.0685 4.16847 10.1046 4.26777C10.1407 4.36708 10.1476 4.46873 10.1252 4.57273C10.1028 4.67673 10.0463 4.76918 9.95563 4.85007L7.96501 6.56986L8.56084 9.12923C8.58792 9.24659 8.57889 9.35276 8.53376 9.44773C8.48862 9.5427 8.42542 9.62161 8.34417 9.68444C8.26292 9.74727 8.16813 9.78338 8.0598 9.79277C7.95146 9.80216 7.84764 9.77508 7.74834 9.71152L5.50042 8.35736Z" fill="white"/>
</svg>
